<svg viewBox="0 0 96 96"  xmlns="http://www.w3.org/2000/svg" xmlns:xlink="http://www.w3.org/1999/xlink">
  <path fill="#FFFFFF" d="M49.69,4.03C49.13,4.01,48.57,4,48,4s-1.13,0.01-1.69,0.03C22.79,4.92,4,24.27,4,48c0,23.73,18.79,43.08,42.31,43.97  C46.87,91.99,47.43,92,48,92s1.13-0.01,1.69-0.03C73.21,91.08,92,71.73,92,48C92,24.27,73.21,4.92,49.69,4.03z M83.77,44H67.86  c-0.91-13.4-6.271-24.09-10.74-30.84C71.33,16.88,82.13,29.06,83.77,44z M48.01,14.18C51.94,19.3,58.71,29.98,59.84,44H36.16  C37.29,30.04,44.08,19.32,48.01,14.18z M59.84,52c-1.13,13.96-7.91,24.68-11.85,29.82C44.06,76.7,37.29,66.02,36.16,52H59.84z   M38.88,13.16C34.41,19.91,29.05,30.6,28.14,44H12.23C13.87,29.06,24.67,16.88,38.88,13.16z M12.23,52h15.91  c0.91,13.39,6.26,24.08,10.73,30.83C24.66,79.12,13.87,66.94,12.23,52z M57.13,82.83C61.6,76.08,66.95,65.39,67.86,52H83.77  C82.13,66.94,71.34,79.12,57.13,82.83z"/>
</svg>
